<svg xmlns="http://www.w3.org/2000/svg" xmlns:xlink="http://www.w3.org/1999/xlink" width="500" zoomAndPan="magnify" viewBox="0 0 375 374.999991" height="500" preserveAspectRatio="xMidYMid meet" version="1.0"><defs><filter x="0%" y="0%" width="100%" height="100%" id="86a7b7f852"><feColorMatrix values="0 0 0 0 1 0 0 0 0 1 0 0 0 0 1 0 0 0 1 0" color-interpolation-filters="sRGB"/></filter><mask id="c99b38e066"><g filter="url(#86a7b7f852)"><rect x="-37.5" width="450" fill="#000000" y="-37.499999" height="449.999989" fill-opacity="0.5"/></g></mask><clipPath id="1427d4b9c4"><rect x="0" width="375" y="0" height="375"/></clipPath></defs><rect x="-37.5" width="450" fill="#ffffff" y="-37.499999" height="449.999989" fill-opacity="1"/><rect x="-37.5" width="450" fill="#000000" y="-37.499999" height="449.999989" fill-opacity="1"/><g mask="url(#c99b38e066)"><g transform="matrix(1, 0, 0, 1, 0, 0)"><g clip-path="url(#1427d4b9c4)"><path fill="#3abfef" d="M 186.863281 206.378906 L 289.695312 103.550781 L 303.425781 117.285156 L 320.085938 54.914062 L 257.714844 71.574219 L 271.449219 85.304688 L 168.621094 188.136719 L 85.410156 271.34375 L 71.675781 257.609375 L 54.914062 320.085938 L 117.390625 303.324219 L 103.65625 289.589844 Z M 186.863281 206.378906 " fill-opacity="1" fill-rule="nonzero"/><path fill="#3abfef" d="M 168.621094 186.863281 L 271.449219 289.695312 L 257.714844 303.425781 L 320.085938 320.085938 L 303.425781 257.714844 L 289.695312 271.449219 L 186.863281 168.621094 L 103.65625 85.410156 L 117.390625 71.675781 L 54.914062 54.914062 L 71.675781 117.390625 L 85.410156 103.65625 Z M 168.621094 186.863281 " fill-opacity="1" fill-rule="nonzero"/><path fill="#3abfef" d="M 200.398438 201.300781 L 200.398438 55.875 L 219.824219 55.875 L 187.5 0 L 155.175781 55.875 L 174.601562 55.875 L 174.601562 318.976562 L 155.175781 318.976562 L 187.5 375 L 219.824219 318.976562 L 200.398438 318.976562 Z M 200.398438 201.300781 " fill-opacity="1" fill-rule="nonzero"/><path fill="#3abfef" d="M 173.699219 200.398438 L 319.125 200.398438 L 319.125 219.824219 L 375 187.5 L 319.125 155.175781 L 319.125 174.601562 L 56.023438 174.601562 L 56.023438 155.175781 L 0 187.5 L 56.023438 219.824219 L 56.023438 200.398438 Z M 173.699219 200.398438 " fill-opacity="1" fill-rule="nonzero"/></g></g></g></svg>