<svg xmlns="http://www.w3.org/2000/svg" xmlns:xlink="http://www.w3.org/1999/xlink" width="500" zoomAndPan="magnify" viewBox="0 0 375 374.999991" height="500" preserveAspectRatio="xMidYMid meet" version="1.0"><defs><filter x="0%" y="0%" width="100%" height="100%" id="31f81540c7"><feColorMatrix values="0 0 0 0 1 0 0 0 0 1 0 0 0 0 1 0 0 0 1 0" color-interpolation-filters="sRGB"/></filter><mask id="712c716765"><g filter="url(#31f81540c7)"><rect x="-37.5" width="450" fill="#000000" y="-37.499999" height="449.999989" fill-opacity="0.5"/></g></mask><clipPath id="0655fdb70e"><path d="M 0.480469 0 L 375 0 L 375 374 L 0.480469 374 Z M 0.480469 0 " clip-rule="nonzero"/></clipPath><clipPath id="ac6049a1b9"><rect x="0" width="375" y="0" height="375"/></clipPath></defs><rect x="-37.5" width="450" fill="#ffffff" y="-37.499999" height="449.999989" fill-opacity="1"/><rect x="-37.5" width="450" fill="#000000" y="-37.499999" height="449.999989" fill-opacity="1"/><g mask="url(#712c716765)"><g transform="matrix(1, 0, 0, 1, 0.000000000000000056, 0)"><g clip-path="url(#ac6049a1b9)"><g clip-path="url(#0655fdb70e)"><path fill="#3abfef" d="M 176.464844 371.140625 C 182.960938 368.027344 188.171875 362.96875 192.507812 357.484375 C 201.132812 346.351562 206.753906 333.390625 211.3125 320.273438 C 215.816406 307.09375 219.082031 293.5 221.589844 279.84375 L 221.597656 279.808594 C 222.019531 277.460938 220.804688 275.128906 218.816406 274.535156 C 216.78125 273.921875 214.707031 275.367188 214.179688 277.753906 C 211.292969 290.960938 207.710938 303.871094 203.039062 316.132812 C 198.359375 328.3125 192.601562 340.054688 185.019531 349.042969 C 181.25 353.480469 176.980469 357.125 172.476562 359.015625 C 167.980469 360.949219 163.316406 361.019531 158.921875 359.269531 C 154.519531 357.554688 150.382812 354.066406 146.738281 349.722656 C 143.09375 345.375 139.898438 340.195312 137.089844 334.667969 C 131.480469 323.5625 127.316406 311.136719 124.011719 298.421875 C 120.71875 285.671875 118.304688 272.527344 116.546875 259.253906 C 113.054688 232.6875 112.09375 205.59375 113.195312 178.703125 C 113.277344 176.730469 113.378906 174.753906 113.484375 172.773438 C 114.195312 172.679688 114.902344 172.574219 115.617188 172.480469 C 142.183594 168.976562 169.28125 168.027344 196.179688 169.121094 C 223.03125 170.253906 249.804688 173.464844 275.261719 179.515625 C 287.949219 182.5625 300.339844 186.339844 311.710938 191.148438 C 317.378906 193.550781 322.796875 196.226562 327.664062 199.195312 C 332.523438 202.148438 336.847656 205.4375 340.019531 208.84375 C 343.207031 212.269531 345.054688 215.726562 345.457031 218.730469 C 345.554688 219.441406 345.59375 220.363281 345.539062 220.867188 L 345.511719 221.425781 L 345.5 221.695312 L 345.476562 221.773438 C 345.445312 221.894531 345.445312 221.941406 345.417969 222.097656 C 345.347656 222.46875 345.265625 222.839844 345.171875 223.210938 C 344.769531 224.714844 344.054688 226.238281 342.996094 227.828125 C 340.867188 230.988281 337.324219 234.257812 333.003906 237.222656 C 328.675781 240.191406 323.621094 242.90625 318.21875 245.304688 C 307.382812 250.121094 295.261719 253.816406 282.824219 256.714844 C 279.910156 257.402344 276.972656 258.011719 274.019531 258.617188 L 268.925781 234.105469 L 223.628906 286.191406 L 284.898438 310.890625 L 279.898438 286.863281 C 284.027344 285.917969 288.152344 284.921875 292.261719 283.816406 C 306.253906 280.023438 320.121094 275.355469 333.492188 268.839844 C 340.175781 265.566406 346.734375 261.8125 352.945312 257.183594 C 359.113281 252.558594 365.058594 247.015625 369.472656 239.792969 C 371.640625 236.191406 373.351562 232.171875 374.242188 227.875 C 374.460938 226.800781 374.628906 225.734375 374.746094 224.636719 C 374.808594 224.070312 374.847656 223.386719 374.886719 222.761719 L 374.90625 222.292969 L 374.90625 222.019531 L 374.910156 221.472656 C 374.929688 219.050781 374.695312 217.023438 374.265625 214.835938 C 372.507812 206.179688 367.4375 198.957031 361.816406 193.417969 C 356.113281 187.804688 349.726562 183.496094 343.207031 179.832031 C 336.667969 176.167969 329.9375 173.183594 323.132812 170.566406 C 309.507812 165.367188 295.578125 161.695312 281.566406 158.8125 C 253.527344 153.164062 225.109375 150.761719 196.800781 150.5 C 169.273438 150.300781 141.746094 152.136719 114.632812 156.492188 C 116.324219 137.15625 119.210938 118.042969 123.597656 99.613281 C 126.632812 86.921875 130.40625 74.539062 135.21875 63.160156 C 137.628906 57.496094 140.292969 52.074219 143.261719 47.210938 C 146.222656 42.363281 149.507812 38.039062 152.925781 34.859375 C 156.351562 31.664062 159.792969 29.824219 162.804688 29.417969 C 163.511719 29.324219 164.425781 29.28125 164.9375 29.332031 L 165.488281 29.375 L 165.761719 29.382812 L 165.851562 29.402344 C 165.960938 29.429688 166.011719 29.429688 166.175781 29.460938 C 166.542969 29.53125 166.917969 29.609375 167.289062 29.703125 C 168.769531 30.117188 170.308594 30.828125 171.890625 31.878906 C 175.058594 34.019531 178.335938 37.550781 181.300781 41.875 C 184.265625 46.199219 186.972656 51.253906 189.371094 56.660156 C 194.191406 67.496094 197.875 79.613281 200.792969 92.0625 C 201.464844 94.96875 202.09375 97.90625 202.683594 100.851562 L 178.171875 105.945312 L 230.269531 151.253906 L 254.957031 89.980469 L 230.933594 94.976562 C 229.988281 90.839844 228.992188 86.722656 227.890625 82.621094 C 224.089844 68.628906 219.421875 54.773438 212.910156 41.386719 C 209.640625 34.710938 205.886719 28.152344 201.265625 21.9375 C 196.628906 15.773438 191.085938 9.8125 183.871094 5.410156 C 180.269531 3.234375 176.238281 1.523438 171.953125 0.632812 C 170.882812 0.425781 169.800781 0.261719 168.703125 0.132812 C 168.140625 0.0742188 167.453125 0.0273438 166.832031 -0.00390625 L 166.371094 -0.0234375 L 165.542969 -0.0234375 C 163.128906 -0.0507812 161.09375 0.191406 158.902344 0.613281 C 150.253906 2.367188 143.027344 7.429688 137.472656 13.0625 C 131.871094 18.753906 127.566406 25.152344 123.898438 31.675781 C 120.246094 38.203125 117.25 44.9375 114.636719 51.753906 C 109.445312 65.363281 105.757812 79.304688 102.890625 93.304688 C 98.425781 115.4375 96 137.792969 95.042969 160.136719 C 87.003906 161.855469 79.035156 163.835938 71.160156 166.152344 C 57.683594 170.175781 44.402344 175.082031 32.03125 181.898438 C 25.867188 185.324219 19.933594 189.238281 14.652344 194.019531 C 9.429688 198.78125 4.753906 204.53125 2.398438 211.414062 C -0.0195312 218.242188 0.5625 225.960938 3.742188 232.394531 C 6.855469 238.886719 11.910156 244.097656 17.394531 248.441406 C 28.53125 257.058594 41.488281 262.691406 54.605469 267.246094 C 67.777344 271.746094 81.382812 275.015625 95.035156 277.523438 L 95.070312 277.523438 C 97.410156 277.953125 99.742188 276.734375 100.34375 274.753906 C 100.957031 272.710938 99.519531 270.632812 97.121094 270.109375 C 83.910156 267.21875 71 263.632812 58.742188 258.960938 C 46.574219 254.296875 34.824219 248.535156 25.832031 240.953125 C 21.398438 237.179688 17.75 232.914062 15.867188 228.402344 C 13.933594 223.914062 13.855469 219.25 15.605469 214.855469 C 17.328125 210.441406 20.808594 206.304688 25.148438 202.667969 C 29.503906 199.015625 34.6875 195.828125 40.214844 193.023438 C 51.320312 187.421875 63.738281 183.253906 76.453125 179.9375 C 82.421875 178.398438 88.484375 177.054688 94.601562 175.875 C 94.59375 176.609375 94.578125 177.34375 94.570312 178.070312 C 94.363281 206.363281 96.292969 234.65625 100.90625 262.503906 C 103.234375 276.398438 106.238281 290.199219 110.230469 303.707031 C 114.238281 317.195312 119.160156 330.472656 125.96875 342.847656 C 129.386719 349.003906 133.304688 354.949219 138.082031 360.21875 C 142.847656 365.449219 148.605469 370.128906 155.480469 372.476562 C 162.308594 374.898438 170.039062 374.324219 176.464844 371.140625 " fill-opacity="1" fill-rule="nonzero"/></g></g></g></g></svg>