<svg xmlns="http://www.w3.org/2000/svg" xmlns:xlink="http://www.w3.org/1999/xlink" width="500" zoomAndPan="magnify" viewBox="0 0 375 374.999991" height="500" preserveAspectRatio="xMidYMid meet" version="1.0"><defs><filter x="0%" y="0%" width="100%" height="100%" id="0c2085bb44"><feColorMatrix values="0 0 0 0 1 0 0 0 0 1 0 0 0 0 1 0 0 0 1 0" color-interpolation-filters="sRGB"/></filter><mask id="cdcc37f9a6"><g filter="url(#0c2085bb44)"><rect x="-37.5" width="450" fill="#000000" y="-37.499999" height="449.999989" fill-opacity="0.5"/></g></mask><clipPath id="289961963d"><path d="M 1 0.46875 L 283 0.46875 L 283 314.640625 L 1 314.640625 Z M 1 0.46875 " clip-rule="nonzero"/></clipPath><clipPath id="e6720d8251"><rect x="0" width="375" y="0" height="315"/></clipPath></defs><rect x="-37.5" width="450" fill="#ffffff" y="-37.499999" height="449.999989" fill-opacity="1"/><rect x="-37.5" width="450" fill="#000000" y="-37.499999" height="449.999989" fill-opacity="1"/><g mask="url(#cdcc37f9a6)"><g transform="matrix(1, 0, 0, 1, 0, 30)"><g clip-path="url(#e6720d8251)"><g clip-path="url(#289961963d)"><path fill="#3abfef" d="M 12.875 187.160156 C 13.167969 187.160156 13.746094 187.453125 14.039062 187.453125 L 15.203125 187.742188 C 17.238281 188.324219 18.980469 189.195312 20.144531 190.070312 C 20.144531 191.523438 18.402344 195.011719 17.527344 197.046875 C 14.910156 202.863281 10.839844 211.878906 18.402344 217.40625 C 19.273438 218.566406 20.726562 218.859375 21.890625 219.148438 C 21.019531 220.601562 20.4375 222.347656 20.4375 224.382812 C 20.726562 231.070312 27.414062 232.527344 30.324219 233.109375 C 30.324219 234.851562 30.03125 237.46875 29.742188 239.503906 C 28.871094 245.902344 27.996094 254.046875 30.03125 261.316406 C 31.488281 265.96875 34.394531 270.039062 38.464844 272.945312 C 43.117188 276.4375 49.515625 277.890625 55.914062 277.308594 C 77.140625 275.5625 99.242188 268.585938 119.890625 256.953125 C 121.050781 276.144531 118.433594 290.6875 105.640625 304.933594 C 104.1875 306.679688 103.894531 309.007812 104.769531 311.042969 C 105.640625 313.078125 107.675781 314.53125 110.003906 314.53125 L 240.863281 314.53125 C 243.480469 314.53125 245.804688 312.785156 246.386719 310.460938 C 246.96875 307.84375 246.097656 305.226562 244.058594 304.0625 C 235.628906 298.828125 230.394531 290.6875 228.355469 279.925781 C 223.414062 253.464844 239.699219 213.625 257.4375 189.488281 C 260.34375 185.417969 262.671875 181.636719 264.996094 178.148438 C 266.742188 175.53125 268.488281 172.621094 270.523438 169.714844 C 275.464844 162.445312 279.539062 154.300781 282.15625 145.578125 C 278.664062 141.507812 275.757812 136.851562 273.429688 131.617188 C 271.394531 142.960938 267.324219 153.71875 260.925781 162.734375 C 258.890625 165.933594 256.855469 168.839844 255.109375 171.457031 C 252.785156 175.238281 250.75 178.4375 248.132812 182.21875 C 232.429688 204.027344 211.199219 248.230469 217.308594 281.671875 C 218.761719 289.8125 221.960938 296.792969 226.320312 302.898438 L 121.925781 302.898438 C 131.8125 287.195312 132.976562 270.621094 131.230469 250.265625 C 142.28125 242.703125 147.515625 235.144531 146.933594 227.582031 C 146.644531 224.382812 143.734375 222.058594 140.535156 222.347656 C 137.335938 222.640625 135.011719 225.546875 135.300781 228.746094 C 135.300781 229.328125 135.300781 235.144531 119.308594 244.449219 L 118.433594 245.03125 C 97.789062 256.953125 75.980469 264.515625 55.042969 266.257812 C 51.261719 266.550781 47.769531 265.675781 45.445312 263.933594 C 43.410156 262.476562 41.957031 260.441406 41.375 258.40625 C 39.917969 253.464844 40.792969 247.066406 41.375 241.539062 C 42.246094 235.726562 42.828125 231.070312 41.082031 227.292969 C 39.917969 224.382812 37.59375 223.21875 35.265625 222.640625 C 37.59375 220.3125 39.628906 217.695312 38.757812 214.207031 C 37.59375 208.972656 32.066406 208.972656 28.578125 208.679688 C 27.996094 208.679688 26.832031 208.679688 25.960938 208.679688 C 26.253906 207.226562 27.414062 204.320312 28.289062 202.574219 C 30.90625 196.757812 34.683594 188.324219 28.289062 182.21875 C 25.378906 179.601562 22.179688 178.4375 18.980469 177.273438 L 17.820312 176.984375 C 17.238281 176.691406 16.945312 176.691406 16.363281 176.402344 C 15.203125 176.109375 13.746094 175.53125 13.457031 175.238281 C 13.457031 175.238281 13.457031 174.949219 13.457031 174.65625 C 15.203125 170.875 18.109375 167.097656 21.308594 163.023438 C 24.507812 159.246094 27.996094 154.882812 30.90625 149.648438 C 31.488281 148.484375 32.066406 147.613281 32.648438 146.449219 C 37.59375 138.015625 43.410156 128.421875 41.375 118.242188 C 38.464844 102.539062 39.917969 89.453125 46.609375 75.496094 C 68.707031 28.675781 112.328125 16.753906 130.066406 13.84375 C 137.917969 12.683594 146.0625 11.808594 154.203125 11.808594 C 154.203125 11.808594 154.203125 11.808594 154.496094 11.808594 C 170.199219 11.808594 185.320312 13.84375 198.988281 18.207031 C 201.894531 19.078125 204.800781 20.242188 207.710938 21.40625 C 234.464844 32.164062 256.273438 54.558594 267.324219 80.148438 L 275.757812 80.148438 C 276.628906 78.695312 277.210938 77.53125 278.082031 76.078125 C 265.871094 47.289062 241.734375 22.277344 212.074219 10.355469 C 208.875 9.191406 205.675781 8.03125 202.476562 6.867188 C 187.9375 2.796875 171.941406 0.46875 154.785156 0.46875 C 154.785156 0.46875 154.785156 0.46875 154.496094 0.46875 C 145.769531 0.46875 137.046875 1.050781 128.324219 2.503906 C 108.839844 5.703125 60.566406 18.5 36.140625 70.550781 C 28.871094 86.546875 27.125 102.25 30.324219 120.277344 C 31.488281 126.09375 27.125 133.363281 22.761719 140.34375 C 22.179688 141.507812 21.597656 142.378906 20.726562 143.542969 C 18.109375 147.902344 15.203125 151.683594 12.003906 155.464844 C 8.222656 160.117188 4.734375 164.480469 2.40625 170.003906 C 0.660156 173.785156 1.242188 178.148438 3.277344 181.34375 C 6.1875 185.125 10.257812 186.289062 12.875 187.160156 Z M 12.875 187.160156 " fill-opacity="1" fill-rule="nonzero"/></g><path fill="#3abfef" d="M 170.488281 103.121094 L 170.488281 108.0625 C 170.488281 114.171875 175.433594 119.113281 181.539062 119.113281 L 185.902344 119.113281 L 185.902344 128.421875 C 185.902344 134.527344 190.84375 139.46875 196.949219 139.46875 L 202.183594 139.46875 C 208.292969 139.46875 213.234375 134.527344 213.234375 128.421875 L 213.234375 118.824219 L 219.632812 118.824219 L 219.632812 120.570312 C 219.632812 126.675781 224.578125 131.617188 230.683594 131.617188 L 235.917969 131.617188 C 242.023438 131.617188 246.96875 126.675781 246.96875 120.570312 L 246.96875 118.824219 L 282.738281 118.824219 C 286.808594 139.761719 305.710938 154.59375 327.230469 154.59375 C 328.390625 154.59375 329.847656 154.59375 331.007812 154.300781 C 354.273438 152.554688 372.59375 133.363281 373.757812 110.101562 C 374.339844 97.304688 369.976562 85.089844 360.960938 75.785156 C 351.945312 66.480469 340.023438 61.246094 326.9375 61.246094 C 307.164062 61.246094 289.714844 73.460938 283.027344 91.78125 L 181.539062 91.78125 C 175.433594 92.070312 170.488281 97.015625 170.488281 103.121094 Z M 182.121094 103.703125 L 287.679688 103.703125 C 290.296875 103.703125 292.625 101.957031 293.207031 99.339844 C 297.277344 83.929688 311.234375 73.167969 327.230469 73.167969 C 337.117188 73.167969 346.128906 76.949219 352.820312 84.21875 C 359.507812 91.199219 362.707031 100.210938 362.414062 109.808594 C 361.542969 126.964844 347.585938 141.507812 330.425781 142.960938 C 311.527344 144.414062 294.949219 131.039062 292.625 112.425781 C 292.332031 109.519531 289.714844 107.191406 286.808594 107.191406 L 240.28125 107.191406 C 237.082031 107.191406 234.464844 109.808594 234.464844 113.007812 L 234.464844 119.988281 L 230.683594 119.988281 L 230.683594 113.007812 C 230.683594 109.808594 228.066406 107.191406 224.867188 107.191406 L 206.839844 107.191406 C 203.640625 107.191406 201.023438 109.808594 201.023438 113.007812 L 201.023438 127.546875 L 197.242188 127.546875 L 197.242188 113.007812 C 197.242188 109.808594 194.625 107.191406 191.425781 107.191406 L 182.121094 107.191406 Z M 182.121094 103.703125 " fill-opacity="1" fill-rule="nonzero"/><path fill="#3abfef" d="M 327.519531 134.234375 C 342.058594 134.234375 353.691406 122.605469 353.691406 108.0625 C 353.691406 93.523438 342.058594 81.890625 327.519531 81.890625 C 312.980469 81.890625 301.347656 93.523438 301.347656 108.0625 C 301.347656 122.605469 312.980469 134.234375 327.519531 134.234375 Z M 327.519531 93.523438 C 335.660156 93.523438 342.058594 99.921875 342.058594 108.0625 C 342.058594 116.207031 335.660156 122.605469 327.519531 122.605469 C 319.378906 122.605469 312.980469 116.207031 312.980469 108.0625 C 312.980469 99.921875 319.378906 93.523438 327.519531 93.523438 Z M 327.519531 93.523438 " fill-opacity="1" fill-rule="nonzero"/><path fill="#3abfef" d="M 143.152344 108.0625 C 143.152344 104.867188 140.535156 102.25 137.335938 102.25 L 114.074219 102.25 C 110.875 102.25 108.257812 104.867188 108.257812 108.0625 C 108.257812 111.261719 110.875 113.878906 114.074219 113.878906 L 137.335938 113.878906 C 140.535156 113.878906 143.152344 111.261719 143.152344 108.0625 Z M 143.152344 108.0625 " fill-opacity="1" fill-rule="nonzero"/><path fill="#3abfef" d="M 153.039062 77.53125 L 136.464844 60.953125 C 134.136719 58.628906 130.648438 58.628906 128.324219 60.953125 C 125.996094 63.28125 125.996094 66.769531 128.324219 69.097656 L 144.898438 85.671875 C 146.0625 86.835938 147.515625 87.417969 148.96875 87.417969 C 150.421875 87.417969 151.878906 86.835938 153.039062 85.671875 C 155.367188 83.347656 155.367188 79.855469 153.039062 77.53125 Z M 153.039062 77.53125 " fill-opacity="1" fill-rule="nonzero"/><path fill="#3abfef" d="M 182.992188 71.132812 L 182.992188 47.867188 C 182.992188 44.671875 180.375 42.054688 177.175781 42.054688 C 173.976562 42.054688 171.359375 44.671875 171.359375 47.867188 L 171.359375 71.132812 C 171.359375 74.332031 173.976562 76.949219 177.175781 76.949219 C 180.375 76.949219 182.992188 74.332031 182.992188 71.132812 Z M 182.992188 71.132812 " fill-opacity="1" fill-rule="nonzero"/><path fill="#3abfef" d="M 168.742188 146.742188 L 168.742188 170.003906 C 168.742188 173.203125 171.359375 175.820312 174.558594 175.820312 C 177.757812 175.820312 180.375 173.203125 180.375 170.003906 L 180.375 146.742188 C 180.375 143.542969 177.757812 140.925781 174.558594 140.925781 C 171.359375 140.925781 168.742188 143.542969 168.742188 146.742188 Z M 168.742188 146.742188 " fill-opacity="1" fill-rule="nonzero"/><path fill="#3abfef" d="M 131.519531 157.210938 C 132.976562 157.210938 134.429688 156.628906 135.59375 155.464844 L 152.167969 138.890625 C 154.496094 136.5625 154.496094 133.074219 152.167969 130.746094 C 149.839844 128.421875 146.351562 128.421875 144.027344 130.746094 L 127.449219 147.320312 C 125.125 149.648438 125.125 153.136719 127.449219 155.464844 C 128.613281 156.628906 130.066406 157.210938 131.519531 157.210938 Z M 131.519531 157.210938 " fill-opacity="1" fill-rule="nonzero"/></g></g></g></svg>