<svg xmlns="http://www.w3.org/2000/svg" xmlns:xlink="http://www.w3.org/1999/xlink" width="500" zoomAndPan="magnify" viewBox="0 0 375 374.999991" height="500" preserveAspectRatio="xMidYMid meet" version="1.0"><path fill="#3abfef" d="M 152.277344 139.945312 C 148.644531 141.257812 145.253906 145.015625 144.003906 149.167969 C 143.453125 151 143.363281 151.792969 143.515625 154.417969 C 143.878906 160.953125 147.207031 166.660156 153.46875 171.421875 C 155.878906 173.253906 162.902344 176.734375 166.992188 178.171875 C 168.640625 178.71875 169.984375 179.300781 169.984375 179.453125 C 169.984375 179.636719 166.410156 189.832031 162.046875 202.136719 C 157.679688 214.4375 154.109375 224.667969 154.109375 224.820312 C 154.109375 225.277344 172.945312 225.214844 173.21875 224.757812 C 173.34375 224.574219 176.699219 215.171875 180.699219 203.9375 L 187.964844 183.453125 L 189.035156 183.480469 C 189.644531 183.511719 193.277344 183.972656 197.09375 184.519531 L 204.085938 185.527344 L 204.269531 191.96875 C 204.390625 195.511719 204.574219 203.175781 204.664062 209.003906 L 204.878906 219.628906 L 200.789062 219.628906 C 196.023438 219.628906 194.894531 219.996094 194.011719 221.828125 C 193.003906 223.902344 194.253906 226.621094 196.390625 227.019531 C 197.703125 227.292969 220.144531 226.652344 221.335938 226.347656 C 224.203125 225.550781 224.753906 221.09375 222.128906 219.75 C 221.519531 219.445312 220.082031 219.324219 216.847656 219.324219 C 212.847656 219.324219 212.417969 219.261719 212.390625 218.773438 C 212.113281 210.316406 211.625 187.085938 211.6875 186.992188 C 212.054688 186.597656 222.554688 189.007812 227.625 190.625 C 236.84375 193.617188 240.507812 196.242188 239.132812 198.871094 C 238.21875 200.640625 236.292969 200.792969 232.476562 199.449219 C 229.300781 198.351562 227.867188 198.441406 225.730469 199.816406 C 222.160156 202.074219 221.519531 206.347656 224.265625 209.585938 C 225.761719 211.324219 227.316406 211.996094 229.972656 211.964844 C 235.4375 211.964844 240.078125 210.316406 242.765625 207.386719 C 244.691406 205.3125 245.363281 203.632812 245.605469 200.394531 C 246.03125 194.351562 242.980469 188.183594 237.363281 183.726562 C 232.753906 180.0625 225.027344 176.855469 215.625 174.691406 C 213.457031 174.203125 211.59375 173.742188 211.472656 173.652344 C 211.382812 173.589844 211.199219 169.46875 211.078125 164.460938 C 210.984375 159.457031 210.800781 153.136719 210.710938 150.386719 L 210.496094 145.441406 L 228.324219 145.441406 C 247.863281 145.441406 247.039062 145.535156 247.835938 143.640625 C 248.351562 142.359375 247.988281 140.742188 247.011719 139.945312 C 246.214844 139.335938 246.09375 139.335938 200.085938 139.335938 C 155.054688 139.367188 153.925781 139.367188 152.277344 139.945312 Z M 182.105469 145.65625 C 182.011719 145.808594 180.210938 150.847656 178.074219 156.890625 C 175.9375 162.9375 174.167969 167.914062 174.136719 167.941406 C 174.042969 168.066406 166.808594 166.507812 164.03125 165.773438 C 156.304688 163.730469 154.046875 162.691406 152.152344 160.308594 C 151.300781 159.242188 151.207031 158.90625 151.207031 157.042969 C 151.207031 155.058594 151.269531 154.875 152.277344 153.839844 C 153.375 152.679688 155.085938 151.699219 157.800781 150.632812 C 160.273438 149.65625 161.953125 148.28125 162.566406 146.785156 L 163.113281 145.441406 L 172.671875 145.441406 C 177.921875 145.441406 182.164062 145.535156 182.105469 145.65625 Z M 203.382812 154.816406 C 203.472656 160.003906 203.65625 166.050781 203.75 168.308594 L 203.964844 172.398438 L 202.621094 172.1875 C 201.886719 172.0625 199.382812 171.699219 197.0625 171.390625 C 194.710938 171.085938 192.757812 170.75 192.667969 170.660156 C 192.546875 170.566406 198.925781 152.160156 201.15625 146.113281 C 201.335938 145.625 201.671875 145.441406 202.285156 145.441406 L 203.167969 145.441406 Z M 203.382812 154.816406 " fill-opacity="1" fill-rule="nonzero"/></svg>