<svg xmlns="http://www.w3.org/2000/svg" xmlns:xlink="http://www.w3.org/1999/xlink" width="500" zoomAndPan="magnify" viewBox="0 0 375 374.999991" height="500" preserveAspectRatio="xMidYMid meet" version="1.0"><defs><filter x="0%" y="0%" width="100%" height="100%" id="8a3bb3a342"><feColorMatrix values="0 0 0 0 1 0 0 0 0 1 0 0 0 0 1 0 0 0 1 0" color-interpolation-filters="sRGB"/></filter><mask id="46b0a533ff"><g filter="url(#8a3bb3a342)"><rect x="-37.5" width="450" fill="#000000" y="-37.499999" height="449.999989" fill-opacity="0.5"/></g></mask><clipPath id="d0fc565e2e"><path d="M 0 1.476562 L 375 1.476562 L 375 153.726562 L 0 153.726562 Z M 0 1.476562 " clip-rule="nonzero"/></clipPath><clipPath id="4ea8c6e835"><rect x="0" width="375" y="0" height="154"/></clipPath></defs><rect x="-37.5" width="450" fill="#ffffff" y="-37.499999" height="449.999989" fill-opacity="1"/><rect x="-37.5" width="450" fill="#000000" y="-37.499999" height="449.999989" fill-opacity="1"/><g mask="url(#46b0a533ff)"><g transform="matrix(1, 0, 0, 1, 0, 110)"><g clip-path="url(#4ea8c6e835)"><g clip-path="url(#d0fc565e2e)"><path fill="#3abfef" d="M 168.339844 152.054688 C 165.996094 150.960938 162.960938 147.867188 162.523438 146.121094 C 162.238281 144.992188 161.835938 144.886719 160.515625 145.59375 C 158.890625 146.460938 153.695312 146.183594 151.480469 145.109375 C 148.890625 143.859375 146.15625 140.722656 145.234375 137.949219 L 144.503906 135.75 L 142.878906 136.09375 C 141.984375 136.285156 140.296875 136.390625 139.132812 136.332031 C 130.019531 135.871094 125.207031 124.523438 131.378906 118.0625 L 132.804688 116.570312 L 130.582031 114.632812 C 129.359375 113.566406 124.914062 109.914062 120.703125 106.515625 L 113.042969 100.339844 L 109.8125 99.835938 C 106.714844 99.347656 77.59375 94.910156 27.683594 87.3125 C 14.847656 85.359375 3.390625 83.613281 2.222656 83.429688 L 0.0976562 83.101562 L 0.117188 51.128906 C 0.125 33.542969 0.183594 19.113281 0.242188 19.058594 C 0.324219 18.984375 70.203125 35.390625 121.984375 47.640625 L 129.386719 49.394531 L 135.984375 45.652344 C 152.417969 36.328125 151.199219 36.820312 171.574219 31.347656 C 192.070312 25.84375 193.492188 25.636719 197.355469 27.5625 C 201.171875 29.460938 204.4375 33.722656 205.945312 38.761719 C 206.496094 40.605469 206.558594 40.652344 208.425781 40.652344 C 213.285156 40.652344 225.152344 42.792969 233.664062 45.203125 C 238.082031 46.453125 238.695312 46.527344 240.554688 46.039062 C 242.339844 45.570312 371.988281 2.550781 374.078125 1.734375 C 374.808594 1.453125 374.867188 1.691406 374.746094 4.464844 L 374.613281 7.503906 L 358.386719 12.917969 C 349.464844 15.894531 318.960938 26.042969 290.601562 35.472656 L 239.039062 52.621094 L 234.972656 51.34375 C 224.644531 48.105469 212.628906 46.1875 198.371094 45.5 C 186.664062 44.9375 183.152344 45.257812 179.074219 47.265625 C 177.242188 48.167969 173.324219 51.269531 166.972656 56.835938 C 161.804688 61.367188 157.070312 65.671875 156.457031 66.40625 C 153.925781 69.414062 154.71875 73.671875 158.179688 75.648438 C 162.878906 78.332031 167.386719 76.304688 180.574219 65.582031 C 182.398438 64.097656 184.597656 62.632812 185.460938 62.324219 C 186.425781 61.980469 189.179688 61.777344 192.589844 61.796875 C 197.316406 61.820312 198.746094 62.007812 202.148438 63.042969 C 206.753906 64.441406 208.425781 65.714844 207.980469 67.488281 C 207.53125 69.277344 206.261719 69.710938 203.683594 68.953125 C 202.472656 68.597656 201.480469 68.371094 201.480469 68.449219 C 201.480469 68.523438 204.632812 70.839844 208.480469 73.59375 C 222.777344 83.816406 228.0625 87.988281 239.417969 97.992188 C 242.054688 100.316406 244.371094 102.273438 244.5625 102.34375 C 244.757812 102.414062 246.875 100.011719 249.269531 97.007812 C 251.660156 94.003906 253.75 91.394531 253.910156 91.210938 C 254.070312 91.027344 264.992188 87.667969 278.179688 83.746094 C 291.371094 79.828125 311.960938 73.710938 323.941406 70.148438 C 335.917969 66.589844 352 61.796875 359.675781 59.5 C 367.351562 57.199219 373.914062 55.320312 374.253906 55.320312 C 374.734375 55.320312 374.847656 55.949219 374.746094 58.085938 L 374.613281 60.851562 L 369.722656 62.328125 C 361.375 64.851562 314.4375 78.839844 300.824219 82.859375 C 278.570312 89.429688 258.515625 95.457031 258.0625 95.707031 C 257.769531 95.871094 255.558594 98.46875 253.152344 101.480469 L 248.773438 106.953125 L 249.65625 109.640625 C 250.425781 111.992188 250.472656 112.632812 250.015625 114.804688 C 249.035156 119.472656 245.105469 122.597656 240.234375 122.578125 C 236.730469 122.566406 234.910156 121.574219 226.816406 115.277344 C 223.027344 112.328125 218.328125 108.757812 216.371094 107.339844 C 212.488281 104.527344 203.382812 98.949219 201.257812 98.078125 L 199.925781 97.53125 L 201.066406 98.539062 C 201.691406 99.09375 207.828125 104.113281 214.699219 109.699219 C 227.046875 119.730469 229.089844 121.742188 229.9375 124.699219 C 231.5 130.144531 228.238281 135.808594 222.789062 137.113281 C 218.363281 138.175781 218.152344 138.070312 199.695312 125.664062 C 193.0625 121.199219 187.4375 117.550781 187.195312 117.550781 C 186.71875 117.550781 189.226562 119.703125 198.589844 127.316406 C 206.804688 133.996094 208.535156 135.652344 209.523438 137.773438 C 211.898438 142.875 208.953125 149.09375 203.402344 150.707031 C 199.550781 151.828125 196.769531 150.917969 191.011719 146.660156 L 187.878906 144.34375 L 183.683594 147.90625 C 181.378906 149.867188 178.6875 151.835938 177.707031 152.28125 C 175.113281 153.457031 171.148438 153.363281 168.339844 152.054688 Z M 176.625 146.007812 C 177.707031 145.28125 180.488281 142.910156 182.8125 140.738281 C 186.992188 136.828125 187.035156 136.765625 187.035156 134.6875 C 187.035156 132.878906 186.835938 132.410156 185.582031 131.292969 C 184.449219 130.28125 183.707031 129.996094 182.191406 129.996094 C 180.410156 129.996094 179.933594 130.273438 176.308594 133.4375 C 174.140625 135.328125 171.289062 137.917969 169.96875 139.1875 C 167.707031 141.375 167.589844 141.59375 167.84375 143.195312 C 168.480469 147.195312 172.804688 148.578125 176.625 146.007812 Z M 158.257812 140.25 C 159.6875 139.839844 173.683594 128.128906 175.917969 125.476562 C 178.25 122.703125 176.816406 117.925781 173.300781 116.769531 C 170.269531 115.769531 169.109375 116.4375 159.585938 124.6875 L 150.808594 132.292969 L 150.808594 134.640625 C 150.808594 137.335938 151.859375 139.054688 154.105469 140.03125 C 155.761719 140.753906 156.386719 140.789062 158.257812 140.25 Z M 144.886719 128.816406 C 147.402344 126.910156 156.339844 119.171875 159.347656 116.289062 C 160.496094 115.1875 161.566406 113.703125 161.722656 112.996094 C 162.757812 108.289062 158.179688 104.289062 153.863281 106.128906 C 152.214844 106.832031 135.582031 121.4375 134.828125 122.839844 C 133.667969 125.011719 134.742188 128.5625 136.921875 129.746094 C 137.59375 130.109375 139.175781 130.414062 140.441406 130.421875 C 142.414062 130.4375 143.042969 130.210938 144.886719 128.816406 Z M 144.886719 128.816406 " fill-opacity="1" fill-rule="nonzero"/></g></g></g></g></svg>