<svg xmlns="http://www.w3.org/2000/svg" xmlns:xlink="http://www.w3.org/1999/xlink" width="500" zoomAndPan="magnify" viewBox="0 0 375 374.999991" height="500" preserveAspectRatio="xMidYMid meet" version="1.0"><defs><g/></defs><path fill="#3abfef" d="M 157.496094 110.90625 C 154.394531 112.023438 151.5 115.234375 150.433594 118.78125 C 149.960938 120.34375 149.882812 121.023438 150.015625 123.265625 C 150.324219 128.84375 153.167969 133.71875 158.515625 137.785156 C 160.574219 139.351562 166.570312 142.324219 170.0625 143.550781 C 171.472656 144.015625 172.621094 144.515625 172.621094 144.644531 C 172.621094 144.800781 169.566406 153.507812 165.839844 164.015625 C 162.109375 174.519531 159.0625 183.257812 159.0625 183.386719 C 159.0625 183.777344 175.148438 183.726562 175.382812 183.335938 C 175.488281 183.175781 178.355469 175.148438 181.769531 165.554688 L 187.972656 148.058594 L 188.886719 148.082031 C 189.410156 148.109375 192.511719 148.503906 195.769531 148.972656 L 201.742188 149.832031 L 201.898438 155.332031 C 202.003906 158.359375 202.160156 164.902344 202.234375 169.878906 L 202.417969 178.953125 L 198.925781 178.953125 C 194.855469 178.953125 193.890625 179.269531 193.136719 180.832031 C 192.277344 182.605469 193.34375 184.925781 195.171875 185.265625 C 196.289062 185.5 215.457031 184.953125 216.472656 184.691406 C 218.921875 184.011719 219.390625 180.207031 217.152344 179.058594 C 216.628906 178.796875 215.402344 178.695312 212.640625 178.695312 C 209.222656 178.695312 208.859375 178.640625 208.835938 178.222656 C 208.597656 171 208.179688 151.164062 208.234375 151.082031 C 208.546875 150.746094 217.515625 152.804688 221.84375 154.183594 C 229.71875 156.738281 232.847656 158.980469 231.671875 161.226562 C 230.890625 162.738281 229.246094 162.867188 225.988281 161.722656 C 223.273438 160.785156 222.050781 160.859375 220.226562 162.035156 C 217.175781 163.960938 216.628906 167.613281 218.976562 170.378906 C 220.253906 171.863281 221.582031 172.4375 223.847656 172.410156 C 228.515625 172.410156 232.480469 171 234.773438 168.5 C 236.417969 166.726562 236.992188 165.292969 237.199219 162.527344 C 237.5625 157.367188 234.957031 152.101562 230.160156 148.292969 C 226.222656 145.164062 219.625 142.425781 211.597656 140.578125 C 209.746094 140.160156 208.152344 139.765625 208.050781 139.691406 C 207.972656 139.636719 207.816406 136.117188 207.714844 131.839844 C 207.632812 127.566406 207.476562 122.167969 207.398438 119.820312 L 207.214844 115.597656 L 222.441406 115.597656 C 239.128906 115.597656 238.425781 115.679688 239.105469 114.058594 C 239.542969 112.964844 239.234375 111.585938 238.402344 110.90625 C 237.71875 110.382812 237.617188 110.382812 198.324219 110.382812 C 159.871094 110.410156 158.90625 110.410156 157.496094 110.90625 Z M 182.96875 115.78125 C 182.890625 115.910156 181.351562 120.214844 179.527344 125.375 C 177.703125 130.539062 176.191406 134.789062 176.164062 134.8125 C 176.085938 134.917969 169.90625 133.589844 167.535156 132.960938 C 160.9375 131.21875 159.007812 130.328125 157.390625 128.292969 C 156.664062 127.382812 156.582031 127.097656 156.582031 125.503906 C 156.582031 123.8125 156.636719 123.65625 157.496094 122.769531 C 158.433594 121.78125 159.894531 120.941406 162.214844 120.03125 C 164.324219 119.199219 165.761719 118.023438 166.285156 116.746094 L 166.75 115.597656 L 174.914062 115.597656 C 179.398438 115.597656 183.019531 115.679688 182.96875 115.78125 Z M 201.140625 123.605469 C 201.21875 128.035156 201.375 133.199219 201.453125 135.125 L 201.636719 138.621094 L 200.492188 138.4375 C 199.863281 138.332031 197.726562 138.023438 195.742188 137.757812 C 193.734375 137.5 192.066406 137.210938 191.992188 137.136719 C 191.886719 137.054688 197.335938 121.335938 199.238281 116.171875 C 199.394531 115.753906 199.679688 115.597656 200.203125 115.597656 L 200.957031 115.597656 Z M 201.140625 123.605469 " fill-opacity="1" fill-rule="nonzero"/><g fill="#3abfef" fill-opacity="1"><g transform="translate(0.0000045, 233.033935)"><g><path d="M 30.265625 0 L 23.71875 0 L 21.34375 -7.265625 L 9.25 -7.265625 L 6.875 0 L 0.46875 0 L 11.375 -31.546875 L 19.375 -31.546875 Z M 15 -24.96875 L 10.9375 -12.515625 L 19.609375 -12.515625 L 15.53125 -24.96875 Z M 15 -24.96875 "/></g></g><g transform="translate(30.746549, 233.033935)"><g><path d="M 10.328125 0 L 4.09375 0 L 4.09375 -31.546875 L 10.328125 -31.546875 Z M 10.328125 0 "/></g></g></g><g fill="#3abfef" fill-opacity="1"><g transform="translate(45.20282, 233.033935)"><g><path d="M 4.140625 0 L 4.140625 -23.796875 L 7.484375 -23.796875 L 7.484375 -20.28125 L 7.9375 -20.1875 C 8.738281 -21.53125 9.710938 -22.539062 10.859375 -23.21875 C 12.003906 -23.90625 13.375 -24.25 14.96875 -24.25 C 16.8125 -24.25 18.234375 -23.898438 19.234375 -23.203125 C 20.242188 -22.503906 21.03125 -21.378906 21.59375 -19.828125 L 22.046875 -19.828125 C 22.867188 -21.273438 23.878906 -22.375 25.078125 -23.125 C 26.285156 -23.875 27.765625 -24.25 29.515625 -24.25 C 31.960938 -24.25 33.785156 -23.585938 34.984375 -22.265625 C 36.179688 -20.941406 36.78125 -18.925781 36.78125 -16.21875 L 36.78125 0 L 33.265625 0 L 33.265625 -16.140625 C 33.265625 -17.867188 32.898438 -19.140625 32.171875 -19.953125 C 31.453125 -20.773438 30.285156 -21.1875 28.671875 -21.1875 C 26.773438 -21.1875 25.222656 -20.492188 24.015625 -19.109375 C 22.816406 -17.734375 22.21875 -15.460938 22.21875 -12.296875 L 22.21875 0 L 18.703125 0 L 18.703125 -16.140625 C 18.703125 -17.867188 18.335938 -19.140625 17.609375 -19.953125 C 16.890625 -20.773438 15.722656 -21.1875 14.109375 -21.1875 C 12.210938 -21.1875 10.660156 -20.515625 9.453125 -19.171875 C 8.253906 -17.835938 7.65625 -15.671875 7.65625 -12.671875 L 7.65625 0 Z M 4.140625 0 "/></g></g><g transform="translate(85.766683, 233.033935)"><g><path d="M 4.140625 9.640625 L 4.140625 -23.796875 L 7.65625 -23.796875 L 7.65625 -20.234375 L 8.109375 -20.15625 C 9.878906 -22.882812 12.476562 -24.25 15.90625 -24.25 C 17.882812 -24.25 19.613281 -23.796875 21.09375 -22.890625 C 22.582031 -21.984375 23.734375 -20.601562 24.546875 -18.75 C 25.367188 -16.90625 25.78125 -14.617188 25.78125 -11.890625 C 25.78125 -9.171875 25.347656 -6.890625 24.484375 -5.046875 C 23.617188 -3.203125 22.425781 -1.820312 20.90625 -0.90625 C 19.382812 0 17.628906 0.453125 15.640625 0.453125 C 14.023438 0.453125 12.59375 0.171875 11.34375 -0.390625 C 10.09375 -0.953125 9.015625 -1.875 8.109375 -3.15625 L 7.65625 -3.0625 L 7.65625 9.640625 Z M 14.859375 -2.703125 C 19.679688 -2.703125 22.09375 -5.765625 22.09375 -11.890625 C 22.09375 -18.023438 19.679688 -21.09375 14.859375 -21.09375 C 13.453125 -21.09375 12.207031 -20.769531 11.125 -20.125 C 10.050781 -19.476562 9.203125 -18.46875 8.578125 -17.09375 C 7.960938 -15.71875 7.65625 -13.984375 7.65625 -11.890625 C 7.65625 -9.804688 7.960938 -8.078125 8.578125 -6.703125 C 9.203125 -5.328125 10.050781 -4.316406 11.125 -3.671875 C 12.207031 -3.023438 13.453125 -2.703125 14.859375 -2.703125 Z M 14.859375 -2.703125 "/></g></g><g transform="translate(114.161387, 233.033935)"><g><path d="M 9.8125 0.453125 C 7.46875 0.453125 5.640625 -0.15625 4.328125 -1.375 C 3.015625 -2.601562 2.359375 -4.351562 2.359375 -6.625 C 2.359375 -8.03125 2.644531 -9.21875 3.21875 -10.1875 C 3.800781 -11.164062 4.703125 -11.957031 5.921875 -12.5625 C 7.148438 -13.175781 8.75 -13.648438 10.71875 -13.984375 C 12.445312 -14.265625 13.757812 -14.582031 14.65625 -14.9375 C 15.5625 -15.300781 16.164062 -15.707031 16.46875 -16.15625 C 16.78125 -16.601562 16.9375 -17.164062 16.9375 -17.84375 C 16.9375 -18.925781 16.566406 -19.753906 15.828125 -20.328125 C 15.085938 -20.898438 13.894531 -21.1875 12.25 -21.1875 C 10.71875 -21.1875 9.398438 -20.882812 8.296875 -20.28125 C 7.191406 -19.6875 6.179688 -18.800781 5.265625 -17.625 L 4.828125 -17.625 L 3.109375 -20.0625 C 4.117188 -21.34375 5.398438 -22.359375 6.953125 -23.109375 C 8.503906 -23.867188 10.269531 -24.25 12.25 -24.25 C 15.0625 -24.25 17.128906 -23.632812 18.453125 -22.40625 C 19.785156 -21.175781 20.453125 -19.472656 20.453125 -17.296875 L 20.453125 -4.6875 C 20.453125 -3.363281 21.015625 -2.703125 22.140625 -2.703125 C 22.515625 -2.703125 22.875 -2.765625 23.21875 -2.890625 L 23.515625 -2.8125 L 23.921875 -0.359375 C 23.671875 -0.191406 23.332031 -0.0625 22.90625 0.03125 C 22.476562 0.125 22.039062 0.171875 21.59375 0.171875 C 20.289062 0.171875 19.300781 -0.113281 18.625 -0.6875 C 17.957031 -1.257812 17.53125 -2.109375 17.34375 -3.234375 L 16.890625 -3.28125 C 16.210938 -2.03125 15.296875 -1.09375 14.140625 -0.46875 C 12.992188 0.144531 11.550781 0.453125 9.8125 0.453125 Z M 10.59375 -2.359375 C 11.914062 -2.359375 13.0625 -2.660156 14.03125 -3.265625 C 15 -3.878906 15.742188 -4.738281 16.265625 -5.84375 C 16.785156 -6.957031 17.046875 -8.238281 17.046875 -9.6875 L 17.046875 -12.703125 L 16.640625 -12.796875 C 16.109375 -12.421875 15.457031 -12.109375 14.6875 -11.859375 C 13.925781 -11.609375 12.863281 -11.378906 11.5 -11.171875 C 10.113281 -10.984375 9.015625 -10.695312 8.203125 -10.3125 C 7.390625 -9.925781 6.8125 -9.429688 6.46875 -8.828125 C 6.125 -8.234375 5.953125 -7.5 5.953125 -6.625 C 5.953125 -5.226562 6.363281 -4.164062 7.1875 -3.4375 C 8.007812 -2.71875 9.144531 -2.359375 10.59375 -2.359375 Z M 10.59375 -2.359375 "/></g></g><g transform="translate(138.7802, 233.033935)"><g><path d="M 13.65625 0.453125 C 11.550781 0.453125 9.664062 -0.0234375 8 -0.984375 C 6.332031 -1.941406 5.015625 -3.347656 4.046875 -5.203125 C 3.085938 -7.066406 2.609375 -9.296875 2.609375 -11.890625 C 2.609375 -14.492188 3.085938 -16.722656 4.046875 -18.578125 C 5.015625 -20.441406 6.332031 -21.851562 8 -22.8125 C 9.664062 -23.769531 11.550781 -24.25 13.65625 -24.25 C 16.175781 -24.25 18.179688 -23.773438 19.671875 -22.828125 C 21.160156 -21.878906 22.234375 -20.613281 22.890625 -19.03125 L 20.5 -17.296875 L 20.0625 -17.296875 C 19.414062 -18.609375 18.582031 -19.566406 17.5625 -20.171875 C 16.550781 -20.785156 15.25 -21.09375 13.65625 -21.09375 C 12.1875 -21.09375 10.898438 -20.75 9.796875 -20.0625 C 8.691406 -19.375 7.832031 -18.335938 7.21875 -16.953125 C 6.601562 -15.578125 6.296875 -13.890625 6.296875 -11.890625 C 6.296875 -9.898438 6.601562 -8.21875 7.21875 -6.84375 C 7.84375 -5.476562 8.703125 -4.445312 9.796875 -3.75 C 10.898438 -3.050781 12.1875 -2.703125 13.65625 -2.703125 C 15.3125 -2.703125 16.679688 -3.070312 17.765625 -3.8125 C 18.847656 -4.5625 19.703125 -5.742188 20.328125 -7.359375 L 20.78125 -7.359375 L 23.09375 -6 C 22.46875 -4 21.359375 -2.421875 19.765625 -1.265625 C 18.179688 -0.117188 16.144531 0.453125 13.65625 0.453125 Z M 13.65625 0.453125 "/></g></g><g transform="translate(163.312706, 233.033935)"><g><path d="M 16.09375 -3.78125 L 17.21875 -1.25 C 16.65625 -0.6875 15.914062 -0.265625 15 0.015625 C 14.09375 0.304688 13.109375 0.453125 12.046875 0.453125 C 7.492188 0.453125 5.21875 -1.847656 5.21875 -6.453125 L 5.21875 -20.921875 L 1.078125 -20.921875 L 1.078125 -23.8125 L 5.21875 -23.8125 L 5.21875 -28.84375 L 8.734375 -29.421875 L 8.734375 -23.8125 L 16.390625 -23.8125 L 16.390625 -20.921875 L 8.734375 -20.921875 L 8.734375 -6.796875 C 8.734375 -4.066406 9.921875 -2.703125 12.296875 -2.703125 C 13.585938 -2.703125 14.703125 -3.0625 15.640625 -3.78125 Z M 16.09375 -3.78125 "/></g></g><g transform="translate(181.436985, 233.033935)"><g><path d="M 5.3125 0 L 5.3125 -20.921875 L 1.171875 -20.921875 L 1.171875 -23.8125 L 5.3125 -23.8125 C 5.050781 -24.851562 4.921875 -25.84375 4.921875 -26.78125 C 4.921875 -28.3125 5.242188 -29.601562 5.890625 -30.65625 C 6.546875 -31.71875 7.457031 -32.507812 8.625 -33.03125 C 9.789062 -33.550781 11.140625 -33.8125 12.671875 -33.8125 C 15.035156 -33.8125 16.851562 -33.300781 18.125 -32.28125 L 16.765625 -29.796875 L 16.3125 -29.703125 C 15.375 -30.453125 14.160156 -30.828125 12.671875 -30.828125 C 11.273438 -30.828125 10.21875 -30.46875 9.5 -29.75 C 8.789062 -29.03125 8.4375 -28.007812 8.4375 -26.6875 C 8.4375 -25.863281 8.566406 -24.90625 8.828125 -23.8125 L 16.390625 -23.8125 L 16.390625 -20.921875 L 8.828125 -20.921875 L 8.828125 0 Z M 5.3125 0 "/></g></g><g transform="translate(198.396132, 233.033935)"><g><path d="M 11.765625 0.453125 C 9.066406 0.453125 7.0625 -0.253906 5.75 -1.671875 C 4.4375 -3.097656 3.78125 -5.1875 3.78125 -7.9375 L 3.78125 -23.796875 L 7.296875 -23.796875 L 7.296875 -8.03125 C 7.296875 -4.414062 8.992188 -2.609375 12.390625 -2.609375 C 14.546875 -2.609375 16.25 -3.3125 17.5 -4.71875 C 18.75 -6.132812 19.375 -8.425781 19.375 -11.59375 L 19.375 -23.796875 L 22.890625 -23.796875 L 22.890625 0 L 19.5625 0 L 19.5625 -3.734375 L 19.109375 -3.84375 C 18.296875 -2.382812 17.316406 -1.300781 16.171875 -0.59375 C 15.023438 0.101562 13.554688 0.453125 11.765625 0.453125 Z M 11.765625 0.453125 "/></g></g></g><g fill="#3abfef" fill-opacity="1"><g transform="translate(225.431515, 233.033935)"><g><path d="M 10.328125 -31.546875 L 10.328125 -5.21875 L 24.515625 -5.21875 L 24.515625 0 L 4.09375 0 L 4.09375 -31.546875 Z M 10.328125 -31.546875 "/></g></g><g transform="translate(250.978118, 233.033935)"><g><path d="M 23.515625 -10.546875 L 8.21875 -10.546875 C 8.394531 -8.472656 8.984375 -6.96875 9.984375 -6.03125 C 10.992188 -5.09375 12.367188 -4.625 14.109375 -4.625 C 15.472656 -4.625 16.578125 -4.878906 17.421875 -5.390625 C 18.273438 -5.898438 18.960938 -6.671875 19.484375 -7.703125 L 19.9375 -7.703125 L 23.90625 -5.15625 C 23.125 -3.488281 21.945312 -2.132812 20.375 -1.09375 C 18.8125 -0.0625 16.722656 0.453125 14.109375 0.453125 C 11.648438 0.453125 9.523438 -0.015625 7.734375 -0.953125 C 5.941406 -1.890625 4.5625 -3.28125 3.59375 -5.125 C 2.625 -6.96875 2.140625 -9.222656 2.140625 -11.890625 C 2.140625 -14.585938 2.648438 -16.863281 3.671875 -18.71875 C 4.691406 -20.582031 6.070312 -21.96875 7.8125 -22.875 C 9.550781 -23.789062 11.503906 -24.25 13.671875 -24.25 C 17.046875 -24.25 19.625 -23.359375 21.40625 -21.578125 C 23.195312 -19.796875 24.09375 -17.175781 24.09375 -13.71875 C 24.09375 -12.46875 24.050781 -11.5 23.96875 -10.8125 Z M 18.375 -14.40625 C 18.320312 -16.21875 17.898438 -17.535156 17.109375 -18.359375 C 16.328125 -19.191406 15.179688 -19.609375 13.671875 -19.609375 C 10.648438 -19.609375 8.875 -17.875 8.34375 -14.40625 Z M 18.375 -14.40625 "/></g></g><g transform="translate(276.848369, 233.033935)"><g><path d="M 9.28125 0.453125 C 7.75 0.453125 6.421875 0.171875 5.296875 -0.390625 C 4.179688 -0.953125 3.320312 -1.773438 2.71875 -2.859375 C 2.113281 -3.941406 1.8125 -5.25 1.8125 -6.78125 C 1.8125 -8.1875 2.113281 -9.367188 2.71875 -10.328125 C 3.320312 -11.285156 4.253906 -12.066406 5.515625 -12.671875 C 6.785156 -13.285156 8.441406 -13.757812 10.484375 -14.09375 C 11.910156 -14.320312 12.992188 -14.570312 13.734375 -14.84375 C 14.472656 -15.113281 14.972656 -15.421875 15.234375 -15.765625 C 15.492188 -16.117188 15.625 -16.5625 15.625 -17.09375 C 15.625 -17.851562 15.359375 -18.429688 14.828125 -18.828125 C 14.296875 -19.234375 13.410156 -19.4375 12.171875 -19.4375 C 10.847656 -19.4375 9.585938 -19.140625 8.390625 -18.546875 C 7.203125 -17.960938 6.164062 -17.1875 5.28125 -16.21875 L 4.859375 -16.21875 L 2.359375 -20 C 3.566406 -21.332031 5.039062 -22.375 6.78125 -23.125 C 8.519531 -23.875 10.414062 -24.25 12.46875 -24.25 C 15.625 -24.25 17.90625 -23.578125 19.3125 -22.234375 C 20.71875 -20.898438 21.421875 -19.003906 21.421875 -16.546875 L 21.421875 -6.21875 C 21.421875 -5.15625 21.890625 -4.625 22.828125 -4.625 C 23.179688 -4.625 23.535156 -4.6875 23.890625 -4.8125 L 24.1875 -4.71875 L 24.625 -0.5625 C 24.289062 -0.34375 23.828125 -0.164062 23.234375 -0.03125 C 22.648438 0.101562 22.003906 0.171875 21.296875 0.171875 C 19.867188 0.171875 18.753906 -0.0976562 17.953125 -0.640625 C 17.160156 -1.191406 16.59375 -2.050781 16.25 -3.21875 L 15.796875 -3.265625 C 14.628906 -0.785156 12.457031 0.453125 9.28125 0.453125 Z M 11.171875 -4.015625 C 12.554688 -4.015625 13.660156 -4.476562 14.484375 -5.40625 C 15.316406 -6.332031 15.734375 -7.625 15.734375 -9.28125 L 15.734375 -11.6875 L 15.3125 -11.78125 C 14.957031 -11.488281 14.488281 -11.242188 13.90625 -11.046875 C 13.320312 -10.859375 12.484375 -10.671875 11.390625 -10.484375 C 10.097656 -10.265625 9.164062 -9.894531 8.59375 -9.375 C 8.03125 -8.851562 7.75 -8.109375 7.75 -7.140625 C 7.75 -6.117188 8.050781 -5.34375 8.65625 -4.8125 C 9.257812 -4.28125 10.097656 -4.015625 11.171875 -4.015625 Z M 11.171875 -4.015625 "/></g></g><g transform="translate(301.941865, 233.033935)"><g><path d="M 11.765625 0.453125 C 9.878906 0.453125 8.210938 0 6.765625 -0.90625 C 5.316406 -1.820312 4.179688 -3.203125 3.359375 -5.046875 C 2.546875 -6.898438 2.140625 -9.179688 2.140625 -11.890625 C 2.140625 -14.609375 2.554688 -16.890625 3.390625 -18.734375 C 4.234375 -20.585938 5.398438 -21.96875 6.890625 -22.875 C 8.378906 -23.789062 10.101562 -24.25 12.0625 -24.25 C 13.539062 -24.25 14.820312 -23.992188 15.90625 -23.484375 C 17 -22.972656 17.914062 -22.175781 18.65625 -21.09375 L 19.109375 -21.203125 L 19.109375 -33.359375 L 25.09375 -33.359375 L 25.09375 0 L 19.109375 0 L 19.109375 -3.078125 L 18.65625 -3.171875 C 18 -2.046875 17.09375 -1.160156 15.9375 -0.515625 C 14.789062 0.128906 13.398438 0.453125 11.765625 0.453125 Z M 13.703125 -4.625 C 15.378906 -4.625 16.707031 -5.222656 17.6875 -6.421875 C 18.664062 -7.617188 19.15625 -9.441406 19.15625 -11.890625 C 19.15625 -14.335938 18.664062 -16.164062 17.6875 -17.375 C 16.707031 -18.582031 15.378906 -19.1875 13.703125 -19.1875 C 11.941406 -19.1875 10.597656 -18.597656 9.671875 -17.421875 C 8.742188 -16.253906 8.28125 -14.410156 8.28125 -11.890625 C 8.28125 -9.390625 8.742188 -7.550781 9.671875 -6.375 C 10.597656 -5.207031 11.941406 -4.625 13.703125 -4.625 Z M 13.703125 -4.625 "/></g></g><g transform="translate(330.466028, 233.033935)"><g><path d="M 23.515625 -10.546875 L 8.21875 -10.546875 C 8.394531 -8.472656 8.984375 -6.96875 9.984375 -6.03125 C 10.992188 -5.09375 12.367188 -4.625 14.109375 -4.625 C 15.472656 -4.625 16.578125 -4.878906 17.421875 -5.390625 C 18.273438 -5.898438 18.960938 -6.671875 19.484375 -7.703125 L 19.9375 -7.703125 L 23.90625 -5.15625 C 23.125 -3.488281 21.945312 -2.132812 20.375 -1.09375 C 18.8125 -0.0625 16.722656 0.453125 14.109375 0.453125 C 11.648438 0.453125 9.523438 -0.015625 7.734375 -0.953125 C 5.941406 -1.890625 4.5625 -3.28125 3.59375 -5.125 C 2.625 -6.96875 2.140625 -9.222656 2.140625 -11.890625 C 2.140625 -14.585938 2.648438 -16.863281 3.671875 -18.71875 C 4.691406 -20.582031 6.070312 -21.96875 7.8125 -22.875 C 9.550781 -23.789062 11.503906 -24.25 13.671875 -24.25 C 17.046875 -24.25 19.625 -23.359375 21.40625 -21.578125 C 23.195312 -19.796875 24.09375 -17.175781 24.09375 -13.71875 C 24.09375 -12.46875 24.050781 -11.5 23.96875 -10.8125 Z M 18.375 -14.40625 C 18.320312 -16.21875 17.898438 -17.535156 17.109375 -18.359375 C 16.328125 -19.191406 15.179688 -19.609375 13.671875 -19.609375 C 10.648438 -19.609375 8.875 -17.875 8.34375 -14.40625 Z M 18.375 -14.40625 "/></g></g><g transform="translate(356.336279, 233.033935)"><g><path d="M 3.4375 0 L 3.4375 -23.796875 L 9.234375 -23.796875 L 9.234375 -20.265625 L 9.6875 -20.171875 C 10.257812 -21.492188 11.015625 -22.460938 11.953125 -23.078125 C 12.890625 -23.703125 14.023438 -24.015625 15.359375 -24.015625 C 16.710938 -24.015625 17.742188 -23.785156 18.453125 -23.328125 L 17.4375 -18.171875 L 16.984375 -18.078125 C 16.585938 -18.234375 16.207031 -18.347656 15.84375 -18.421875 C 15.488281 -18.492188 15.054688 -18.53125 14.546875 -18.53125 C 12.878906 -18.53125 11.601562 -17.941406 10.71875 -16.765625 C 9.84375 -15.597656 9.40625 -13.722656 9.40625 -11.140625 L 9.40625 0 Z M 3.4375 0 "/></g></g></g><path stroke-linecap="butt" transform="matrix(0.75, 0, 0, 0.75, 229.846089, 240.804944)" fill="none" stroke-linejoin="miter" d="M 2.00209 1.999658 L 191.538561 1.999658 " stroke="#3abfef" stroke-width="4" stroke-opacity="1" stroke-miterlimit="4"/><path stroke-linecap="round" transform="matrix(0.75, 0, 0, 0.75, 229.846089, 240.804944)" fill="none" stroke-linejoin="round" d="M 10.002091 -4.000343 L 2.00209 1.999658 L 10.002091 7.999658 " stroke="#3abfef" stroke-width="4" stroke-opacity="1" stroke-miterlimit="4"/><path stroke-linecap="round" transform="matrix(0.75, 0, 0, 0.75, 229.846089, 240.804944)" fill="none" stroke-linejoin="round" d="M 183.538561 -4.000343 L 191.538561 1.999658 L 183.538561 7.999658 " stroke="#3abfef" stroke-width="4" stroke-opacity="1" stroke-miterlimit="4"/></svg>