<svg xmlns="http://www.w3.org/2000/svg" xmlns:xlink="http://www.w3.org/1999/xlink" width="500" zoomAndPan="magnify" viewBox="0 0 375 374.999991" height="500" preserveAspectRatio="xMidYMid meet" version="1.0"><defs><filter x="0%" y="0%" width="100%" height="100%" id="70021b0a25"><feColorMatrix values="0 0 0 0 1 0 0 0 0 1 0 0 0 0 1 0 0 0 1 0" color-interpolation-filters="sRGB"/></filter><mask id="86f33875fb"><g filter="url(#70021b0a25)"><rect x="-37.5" width="450" fill="#000000" y="-37.499999" height="449.999989" fill-opacity="0.5"/></g></mask><clipPath id="1d99df8389"><path d="M 1.109375 158 L 341.609375 158 L 341.609375 375 L 1.109375 375 Z M 1.109375 158 " clip-rule="nonzero"/></clipPath><clipPath id="c2c3d1835b"><rect x="0" width="343" y="0" height="375"/></clipPath></defs><rect x="-37.5" width="450" fill="#ffffff" y="-37.499999" height="449.999989" fill-opacity="1"/><rect x="-37.5" width="450" fill="#000000" y="-37.499999" height="449.999989" fill-opacity="1"/><g mask="url(#86f33875fb)"><g transform="matrix(1, 0, 0, 1, 16, 0)"><g clip-path="url(#c2c3d1835b)"><path fill="#3abfef" d="M 115.066406 185.421875 C 112.867188 201.058594 110.667969 216.695312 108.472656 232.328125 C 108.226562 234.039062 107.980469 235.261719 107.003906 236.480469 C 102.609375 243.078125 97.964844 249.429688 93.570312 255.78125 C 83.796875 269.460938 73.78125 283.386719 64.007812 297.3125 C 62.054688 300 60.589844 302.6875 59.855469 305.863281 C 57.902344 314.414062 64.984375 322.964844 73.78125 322.476562 C 79.644531 322.230469 83.550781 319.054688 86.972656 314.902344 C 104.5625 292.671875 121.90625 270.683594 139.496094 248.453125 C 141.695312 245.765625 143.160156 242.589844 143.894531 239.167969 C 146.824219 225.246094 150 211.5625 152.933594 197.394531 C 151.46875 197.148438 135.589844 195.441406 131.191406 194.460938 C 124.351562 193.242188 118.976562 190.066406 115.066406 185.421875 Z M 115.066406 185.421875 " fill-opacity="1" fill-rule="nonzero"/><path fill="#3abfef" d="M 210.890625 9.605469 C 211.703125 9.917969 212.5 10.277344 213.273438 10.675781 C 214.050781 11.078125 214.804688 11.519531 215.53125 12.003906 C 216.261719 12.488281 216.96875 13.011719 217.644531 13.574219 C 218.320312 14.136719 218.96875 14.738281 219.585938 15.375 C 220.207031 16.007812 220.792969 16.679688 221.34375 17.382812 C 221.898438 18.085938 222.417969 18.816406 222.898438 19.578125 C 223.382812 20.34375 223.828125 21.132812 224.234375 21.949219 C 224.644531 22.761719 225.011719 23.601562 225.339844 24.460938 C 225.667969 25.324219 225.957031 26.203125 226.203125 27.097656 C 226.449219 27.996094 226.652344 28.910156 226.816406 29.832031 C 226.976562 30.757812 227.097656 31.695312 227.171875 32.640625 C 227.25 33.582031 227.28125 34.53125 227.269531 35.488281 C 227.261719 36.441406 227.207031 37.398438 227.109375 38.351562 C 227.011719 39.308594 226.871094 40.257812 226.6875 41.207031 C 226.503906 42.152344 226.28125 43.09375 226.011719 44.023438 C 225.746094 44.953125 225.4375 45.867188 225.089844 46.769531 C 224.742188 47.675781 224.351562 48.558594 223.925781 49.429688 C 223.5 50.296875 223.035156 51.140625 222.535156 51.964844 C 222.035156 52.792969 221.5 53.589844 220.929688 54.363281 C 220.359375 55.136719 219.757812 55.878906 219.125 56.59375 C 218.492188 57.308594 217.828125 57.988281 217.136719 58.636719 C 216.445312 59.285156 215.730469 59.898438 214.988281 60.476562 C 214.246094 61.050781 213.484375 61.589844 212.699219 62.089844 C 211.910156 62.589844 211.109375 63.046875 210.285156 63.460938 C 209.464844 63.878906 208.628906 64.253906 207.777344 64.582031 C 206.929688 64.914062 206.066406 65.199219 205.199219 65.4375 C 204.328125 65.679688 203.453125 65.875 202.570312 66.023438 C 201.6875 66.171875 200.804688 66.273438 199.917969 66.328125 C 199.035156 66.386719 198.152344 66.394531 197.273438 66.355469 C 196.390625 66.316406 195.519531 66.230469 194.652344 66.101562 C 193.789062 65.96875 192.933594 65.789062 192.089844 65.566406 C 191.246094 65.34375 190.414062 65.074219 189.601562 64.757812 C 188.789062 64.445312 187.992188 64.085938 187.21875 63.6875 C 186.441406 63.285156 185.691406 62.84375 184.960938 62.359375 C 184.230469 61.875 183.527344 61.351562 182.847656 60.789062 C 182.171875 60.226562 181.523438 59.625 180.90625 58.992188 C 180.289062 58.355469 179.703125 57.6875 179.148438 56.984375 C 178.59375 56.28125 178.078125 55.546875 177.59375 54.785156 C 177.113281 54.023438 176.667969 53.230469 176.257812 52.417969 C 175.851562 51.601562 175.484375 50.761719 175.152344 49.902344 C 174.824219 49.042969 174.539062 48.164062 174.289062 47.265625 C 174.042969 46.367188 173.839844 45.457031 173.675781 44.53125 C 173.515625 43.605469 173.394531 42.671875 173.320312 41.726562 C 173.242188 40.78125 173.210938 39.832031 173.222656 38.875 C 173.234375 37.921875 173.285156 36.96875 173.382812 36.011719 C 173.480469 35.054688 173.621094 34.105469 173.804688 33.15625 C 173.988281 32.210938 174.214844 31.273438 174.480469 30.34375 C 174.746094 29.414062 175.054688 28.496094 175.40625 27.59375 C 175.753906 26.691406 176.140625 25.804688 176.566406 24.9375 C 176.992188 24.070312 177.457031 23.222656 177.957031 22.398438 C 178.460938 21.574219 178.996094 20.773438 179.5625 20 C 180.132812 19.226562 180.734375 18.484375 181.367188 17.769531 C 182.003906 17.054688 182.664062 16.375 183.355469 15.726562 C 184.046875 15.078125 184.761719 14.464844 185.503906 13.886719 C 186.246094 13.3125 187.011719 12.773438 187.796875 12.273438 C 188.582031 11.777344 189.386719 11.316406 190.207031 10.902344 C 191.027344 10.484375 191.863281 10.113281 192.714844 9.78125 C 193.566406 9.453125 194.425781 9.164062 195.296875 8.925781 C 196.164062 8.683594 197.042969 8.488281 197.921875 8.339844 C 198.804688 8.191406 199.6875 8.089844 200.574219 8.035156 C 201.460938 7.980469 202.339844 7.96875 203.222656 8.007812 C 204.101562 8.046875 204.972656 8.132812 205.839844 8.265625 C 206.707031 8.394531 207.5625 8.574219 208.40625 8.796875 C 209.25 9.023438 210.078125 9.289062 210.890625 9.605469 Z M 210.890625 9.605469 " fill-opacity="1" fill-rule="nonzero"/><path fill="#3abfef" d="M 51.304688 149.511719 C 54.480469 149.511719 56.921875 148.289062 59.121094 146.824219 C 61.808594 145.113281 93.078125 112.378906 96.746094 110.667969 C 100.410156 108.957031 135.589844 101.871094 135.589844 101.871094 L 118.488281 154.398438 C 117.019531 158.550781 116.53125 162.703125 116.777344 167.101562 C 117.511719 176.382812 121.90625 183.957031 132.902344 186.402344 C 138.273438 187.621094 178.339844 192.019531 193.488281 193.730469 C 189.332031 203.011719 170.035156 243.8125 164.902344 255.539062 C 160.996094 264.820312 166.859375 274.59375 175.898438 275.324219 C 183.226562 275.8125 188.355469 271.90625 191.53125 265.796875 C 205.214844 240.148438 218.894531 214.25 232.574219 188.597656 C 235.261719 183.714844 235.75 178.339844 234.039062 172.71875 C 231.109375 163.4375 223.292969 161.238281 214.984375 159.773438 C 201.058594 157.085938 187.136719 154.398438 172.964844 151.710938 C 172.964844 151.710938 193.488281 116.042969 195.929688 111.890625 C 195.929688 111.890625 215.960938 124.347656 223.78125 128.992188 C 230.621094 132.898438 237.949219 132.410156 243.570312 127.035156 C 254.316406 116.773438 281.433594 90.878906 283.632812 87.703125 C 289.007812 79.886719 283.632812 69.871094 275.082031 69.625 C 269.707031 69.625 266.042969 72.558594 262.378906 75.488281 C 252.609375 83.550781 243.078125 91.855469 233.308594 99.917969 C 233.0625 100.164062 204.234375 78.664062 202.527344 77.199219 C 201.058594 75.976562 200.328125 75.488281 198.371094 75.488281 C 196.90625 75.488281 195.441406 75.488281 193.976562 75.246094 C 191.042969 75 188.355469 74.265625 185.667969 73.289062 C 181.515625 71.824219 177.851562 69.382812 174.675781 66.449219 C 173.453125 65.226562 172.234375 63.03125 170.765625 62.296875 C 169.300781 61.5625 167.589844 62.050781 166.125 62.296875 C 163.195312 62.785156 160.507812 63.273438 157.574219 64.007812 C 147.558594 66.207031 92.347656 81.597656 89.171875 82.816406 C 84.039062 84.773438 79.398438 87.703125 75.492188 92.101562 C 64.496094 105.292969 53.015625 117.996094 42.019531 130.945312 C 39.089844 134.609375 38.601562 139.007812 41.042969 143.160156 C 43.730469 146.824219 46.417969 149.753906 51.304688 149.511719 Z M 51.304688 149.511719 " fill-opacity="1" fill-rule="nonzero"/><g clip-path="url(#1d99df8389)"><path fill="#3abfef" d="M 310.996094 175.40625 L 279.726562 192.996094 L 294.382812 203.988281 C 226.222656 287.296875 151.222656 323.453125 99.675781 338.84375 C 42.753906 355.945312 1.710938 352.523438 1.222656 352.523438 L 12.707031 362.785156 L 2.933594 374.511719 C 4.15625 374.511719 5.621094 374.511719 7.332031 374.753906 C 22.722656 375 58.878906 374.023438 105.050781 360.34375 C 159.773438 343.972656 239.660156 305.863281 311.972656 217.425781 L 326.140625 227.929688 L 333.960938 192.996094 L 341.777344 158.0625 Z M 310.996094 175.40625 " fill-opacity="1" fill-rule="nonzero"/></g></g></g></g></svg>